<?xml version="1.0" encoding="UTF-8"?>
<svg id="Layer_2" data-name="Layer 2" xmlns="http://www.w3.org/2000/svg" viewBox="0 0 133.84 156.5">
  <defs>
    <style>
      .cls-1 {
        fill: #f15d55;
      }

      .cls-2 {
        fill: #1f6f5b;
      }

      .cls-3 {
        fill: #f9a454;
      }

      .cls-4 {
        fill: #403d39;
      }
    </style>
  </defs>
  <g id="Layer_1-2" data-name="Layer 1">
    <g>
      <path class="cls-4" d="M114.28,19.56C101.68,6.95,84.85,0,66.92,0S32.16,6.95,19.55,19.56C6.94,32.17,0,48.99,0,66.93s6.94,34.75,19.55,47.37l38.57,38.57c2.35,2.35,5.47,3.64,8.8,3.64s6.44-1.29,8.79-3.64l38.57-38.57c12.62-12.62,19.56-29.43,19.56-47.37s-6.94-34.76-19.55-47.37ZM108.94,108.95l-38.57,38.57c-1.9,1.9-5.01,1.9-6.91,0l-38.57-38.57c-11.56-11.57-17.34-26.8-17.34-42.03s5.78-30.47,17.34-42.03c11.57-11.56,26.8-17.35,42.03-17.35s30.46,5.79,42.02,17.35c11.57,11.56,17.35,26.8,17.35,42.03s-5.78,30.46-17.35,42.03Z"/>
      <path class="cls-1" d="M100.13,37.61c-8.57-.62-17.7,2.47-29.71,6.53-4.34,1.47-9.1,3.08-14.48,4.7-16.68,5.03-26.73,2.86-32.12.29-1.53-.73-2.19-2.58-1.45-4.1,2.33-4.77,5.48-9.26,9.44-13.21,9.65-9.65,22.38-14.48,35.11-14.48s25.45,4.83,35.11,14.48c.19.19.39.39.57.58,1.97,2.03.36,5.4-2.47,5.2Z"/>
      <path class="cls-2" d="M116.5,66.93c0,2.29-2.43,3.79-4.46,2.74-12.43-6.43-23.96-2.53-41.53,3.41-4.42,1.5-9.27,3.14-14.75,4.79-23.1,6.97-33.75.4-36.97-2.37-.55-.48-.91-1.15-1.01-1.88-.3-2.22-.45-4.46-.45-6.69,0-1.9.11-3.8.32-5.68.23-1.99,2.29-3.26,4.16-2.53,7.61,2.99,19.59,4.71,36.93-.51,5.4-1.63,10.33-3.3,14.82-4.82,18.09-6.12,28.4-9.61,40.98,1.77.48.44.82,1.02.94,1.65.69,3.34,1.03,6.73,1.03,10.12Z"/>
      <path class="cls-4" d="M93.29,110.77l-24.2,24.2c-1.2,1.2-3.15,1.2-4.35,0l-15.13-15.13c-1.79-1.8-.77-4.86,1.74-5.22,2.73-.39,5.67-1.02,8.85-1.96,4.33-1.28,7.8-2.43,10.98-3.48,8.72-2.89,14.91-4.93,20.71-3.57,2.32.54,3.09,3.48,1.41,5.16Z"/>
      <path class="cls-3" d="M113.13,85c-1.81,4.68-4.36,9.13-7.64,13.18-.97,1.2-2.7,1.47-4.01.63-10.28-6.55-19.2-3.6-33.37,1.09-3.35,1.11-7.03,2.33-10.67,3.4-19.85,5.85-26.21-2-26.23-2.02l-.08.07c-2.02-2.1-3.83-4.35-5.41-6.7-1.5-2.24.43-5.2,3.08-4.74,7.39,1.31,17.19,1.12,29.76-2.67,5.5-1.65,10.51-3.35,15.09-4.9,16.78-5.68,27-9.13,38.37-.98,1.16.83,1.62,2.33,1.11,3.66Z"/>
    </g>
  </g>
</svg>