<?xml version="1.0" encoding="UTF-8"?>
<svg id="Layer_2" data-name="Layer 2" xmlns="http://www.w3.org/2000/svg" viewBox="0 0 435.83 156.5">
  <defs>
    <style>
      .cls-1 {
        fill: #f15d55;
      }

      .cls-2 {
        fill: #1f6f5b;
      }

      .cls-3 {
        fill: #f9a454;
      }

      .cls-4 {
        fill: #403d39;
      }
    </style>
  </defs>
  <g id="Layer_1-2" data-name="Layer 1">
    <g>
      <g>
        <path class="cls-4" d="M114.28,19.56C101.68,6.95,84.85,0,66.92,0S32.16,6.95,19.55,19.56C6.94,32.17,0,48.99,0,66.93s6.94,34.75,19.55,47.37l38.57,38.57c2.35,2.35,5.47,3.64,8.8,3.64s6.44-1.29,8.79-3.64l38.57-38.57c12.62-12.62,19.56-29.43,19.56-47.37s-6.94-34.76-19.55-47.37ZM108.94,108.95l-38.57,38.57c-1.9,1.9-5.01,1.9-6.91,0l-38.57-38.57c-11.56-11.57-17.34-26.8-17.34-42.03s5.78-30.47,17.34-42.03c11.57-11.56,26.8-17.35,42.03-17.35s30.46,5.79,42.02,17.35c11.57,11.56,17.35,26.8,17.35,42.03s-5.78,30.46-17.35,42.03Z"/>
        <path class="cls-1" d="M100.13,37.61c-8.57-.62-17.7,2.47-29.71,6.53-4.34,1.47-9.1,3.08-14.48,4.7-16.68,5.03-26.73,2.86-32.12.29-1.53-.73-2.19-2.58-1.45-4.1,2.33-4.77,5.48-9.26,9.44-13.21,9.65-9.65,22.38-14.48,35.11-14.48s25.45,4.83,35.11,14.48c.19.19.39.39.57.58,1.97,2.03.36,5.4-2.47,5.2Z"/>
        <path class="cls-2" d="M116.5,66.93c0,2.29-2.43,3.79-4.46,2.74-12.43-6.43-23.96-2.53-41.53,3.41-4.42,1.5-9.27,3.14-14.75,4.79-23.1,6.97-33.75.4-36.97-2.37-.55-.48-.91-1.15-1.01-1.88-.3-2.22-.45-4.46-.45-6.69,0-1.9.11-3.8.32-5.68.23-1.99,2.29-3.26,4.16-2.53,7.61,2.99,19.59,4.71,36.93-.51,5.4-1.63,10.33-3.3,14.82-4.82,18.09-6.12,28.4-9.61,40.98,1.77.48.44.82,1.02.94,1.65.69,3.34,1.03,6.73,1.03,10.12Z"/>
        <path class="cls-4" d="M93.29,110.77l-24.2,24.2c-1.2,1.2-3.15,1.2-4.35,0l-15.13-15.13c-1.79-1.8-.77-4.86,1.74-5.22,2.73-.39,5.67-1.02,8.85-1.96,4.33-1.28,7.8-2.43,10.98-3.48,8.72-2.89,14.91-4.93,20.71-3.57,2.32.54,3.09,3.48,1.41,5.16Z"/>
        <path class="cls-3" d="M113.13,85c-1.81,4.68-4.36,9.13-7.64,13.18-.97,1.2-2.7,1.47-4.01.63-10.28-6.55-19.2-3.6-33.37,1.09-3.35,1.11-7.03,2.33-10.67,3.4-19.85,5.85-26.21-2-26.23-2.02l-.08.07c-2.02-2.1-3.83-4.35-5.41-6.7-1.5-2.24.43-5.2,3.08-4.74,7.39,1.31,17.19,1.12,29.76-2.67,5.5-1.65,10.51-3.35,15.09-4.9,16.78-5.68,27-9.13,38.37-.98,1.16.83,1.62,2.33,1.11,3.66Z"/>
      </g>
      <g>
        <path class="cls-4" d="M162.92,101.63V24.54h11.04v27.5h.22c1.15-1.73,2.54-3.16,4.17-4.28,1.62-1.12,3.7-1.68,6.23-1.68,1.37,0,2.74.24,4.11.7,1.37.47,2.6,1.25,3.68,2.33,1.08,1.08,1.95,2.47,2.6,4.17.65,1.7.97,3.77.97,6.23v42.12h-11.04v-38c0-2.02-.47-3.61-1.41-4.76-.94-1.15-2.27-1.73-4.01-1.73-2.09,0-3.54.65-4.33,1.95-.8,1.3-1.19,3.18-1.19,5.63v36.92h-11.04Z"/>
        <path class="cls-4" d="M204.06,65.15c0-2.24.14-4.29.43-6.17.29-1.88.83-3.54,1.62-4.98,1.3-2.38,3.16-4.29,5.58-5.74,2.42-1.44,5.36-2.17,8.82-2.17s6.41.72,8.82,2.17c2.42,1.44,4.28,3.36,5.58,5.74.79,1.44,1.33,3.1,1.62,4.98.29,1.88.43,3.94.43,6.17v18.08c0,2.24-.15,4.29-.43,6.17-.29,1.88-.83,3.54-1.62,4.98-1.3,2.38-3.16,4.29-5.58,5.74-2.42,1.44-5.36,2.17-8.82,2.17s-6.41-.72-8.82-2.17c-2.42-1.44-4.28-3.36-5.58-5.74-.8-1.44-1.34-3.1-1.62-4.98-.29-1.88-.43-3.93-.43-6.17v-18.08ZM215.1,84.96c0,2.09.49,3.66,1.46,4.71.97,1.05,2.29,1.57,3.95,1.57s2.98-.52,3.95-1.57c.97-1.05,1.46-2.62,1.46-4.71v-21.55c0-2.09-.49-3.66-1.46-4.71-.97-1.05-2.29-1.57-3.95-1.57s-2.98.52-3.95,1.57c-.97,1.05-1.46,2.62-1.46,4.71v21.55Z"/>
        <path class="cls-4" d="M244.45,24.54h11.04v61.61c0,2.09.38,3.52,1.14,4.28s2.18,1.25,4.28,1.46v10.39c-2.53,0-4.8-.2-6.82-.6-2.02-.4-3.75-1.17-5.2-2.33-1.44-1.08-2.54-2.62-3.3-4.6s-1.14-4.6-1.14-7.85V24.54Z"/>
        <path class="cls-4" d="M265.23,35.59v-11.04h11.04v11.04h-11.04ZM265.23,101.63v-54.9h11.04v54.9h-11.04Z"/>
        <path class="cls-3" d="M307.35,101.63v-4.98c-.72.79-1.41,1.53-2.06,2.22-.65.69-1.37,1.28-2.17,1.79-.8.51-1.7.9-2.71,1.19-1.01.29-2.2.43-3.57.43-4.62,0-7.83-1.73-9.64-5.2-.65-1.23-1.12-2.74-1.41-4.55-.29-1.8-.43-4.22-.43-7.25v-20.9c0-3.97.11-6.89.33-8.77.43-3.61,2.13-6.32,5.09-8.12,1.37-.94,3.43-1.41,6.17-1.41,2.17,0,4.1.49,5.79,1.46,1.69.97,3.16,2.37,4.38,4.17h.22v-27.18h11.04v77.09h-11.04ZM296.41,83.77c0,2.24.43,4.04,1.3,5.41.87,1.37,2.24,2.06,4.11,2.06,1.66,0,2.99-.63,4.01-1.89,1.01-1.26,1.52-2.91,1.52-4.93v-21.33c0-1.73-.52-3.16-1.57-4.28-1.05-1.12-2.37-1.68-3.95-1.68-2.09,0-3.52.65-4.28,1.95-.76,1.3-1.14,2.82-1.14,4.55v20.14Z"/>
        <path class="cls-3" d="M348.39,101.63v-5.63h-.22c-1.44,2.02-2.91,3.57-4.38,4.66-1.48,1.08-3.56,1.62-6.23,1.62-1.3,0-2.62-.2-3.95-.6-1.34-.4-2.62-1.14-3.84-2.22-1.23-1.01-2.22-2.47-2.98-4.39-.76-1.91-1.14-4.38-1.14-7.42s.25-5.83.76-8.17c.5-2.34,1.44-4.31,2.81-5.9,1.3-1.52,3.07-2.65,5.31-3.41,2.24-.76,5.09-1.14,8.55-1.14h1.19c.43,0,.83.04,1.19.11.36.07.79.11,1.3.11s1.04.04,1.62.11v-5.74c0-1.88-.4-3.43-1.19-4.66-.79-1.23-2.24-1.84-4.33-1.84-1.44,0-2.76.47-3.95,1.41-1.19.94-1.97,2.31-2.33,4.11h-10.72c.29-4.91,1.95-8.88,4.98-11.91,1.44-1.44,3.18-2.58,5.2-3.41,2.02-.83,4.29-1.25,6.82-1.25,2.31,0,4.48.36,6.5,1.08,2.02.72,3.79,1.8,5.31,3.25,1.44,1.45,2.6,3.25,3.46,5.41.87,2.17,1.3,4.69,1.3,7.58v38.22h-11.04ZM348.39,78.03c-1.23-.22-2.24-.33-3.03-.33-2.38,0-4.42.56-6.12,1.68-1.7,1.12-2.54,3.16-2.54,6.12,0,2.09.5,3.79,1.52,5.09,1.01,1.3,2.42,1.95,4.22,1.95s3.34-.61,4.38-1.84c1.05-1.23,1.57-2.96,1.57-5.2v-7.47Z"/>
        <path class="cls-3" d="M364.84,101.63v-8.77l17.87-36.38h-16.46v-9.75h29.02v8.77l-17.87,35.73h17.87v10.39h-30.42Z"/>
        <path class="cls-3" d="M432.95,78.36h-21.87v7.47c0,1.73.49,3.07,1.46,4.01.97.94,2.29,1.41,3.95,1.41,2.09,0,3.48-.61,4.17-1.84.69-1.23,1.1-2.45,1.25-3.68h11.04c0,4.84-1.48,8.73-4.44,11.69-1.44,1.52-3.18,2.71-5.2,3.57-2.02.87-4.3,1.3-6.82,1.3-3.46,0-6.41-.72-8.83-2.17-2.42-1.44-4.28-3.36-5.58-5.74-.79-1.44-1.34-3.1-1.62-4.98-.29-1.88-.43-3.93-.43-6.17v-18.08c0-2.24.14-4.29.43-6.17.29-1.88.83-3.54,1.62-4.98,1.3-2.38,3.16-4.29,5.58-5.74,2.42-1.44,5.36-2.17,8.83-2.17,2.53,0,4.82.43,6.88,1.3s3.81,2.06,5.25,3.57c2.89,3.25,4.33,7.33,4.33,12.24v15.16ZM411.08,69.69h10.83v-6.28c0-2.09-.49-3.66-1.46-4.71-.97-1.05-2.29-1.57-3.95-1.57s-2.98.52-3.95,1.57c-.97,1.05-1.46,2.62-1.46,4.71v6.28Z"/>
      </g>
      <g>
        <path class="cls-1" d="M293.68,123.7c-.02-.61-.22-1.07-.58-1.37-.37-.3-.78-.46-1.25-.46-.56,0-1,.18-1.3.55-.31.36-.46.78-.46,1.25,0,.33.08.65.25.97.16.32.59.6,1.27.86l2.11.85c1.34.52,2.26,1.22,2.77,2.11.5.89.76,1.87.76,2.92,0,.75-.14,1.45-.41,2.1-.27.65-.64,1.22-1.11,1.71s-1.03.88-1.69,1.16c-.66.28-1.37.42-2.15.42-1.46,0-2.68-.46-3.66-1.37-.49-.45-.89-1-1.2-1.67s-.47-1.45-.49-2.34h3.38c.07.49.24.95.51,1.37.27.42.75.63,1.43.63.52,0,.98-.17,1.39-.51.41-.34.62-.82.62-1.43,0-.49-.13-.92-.39-1.27s-.73-.66-1.41-.92l-1.73-.63c-1.13-.42-2.01-1.05-2.66-1.88-.65-.83-.97-1.85-.97-3.05,0-.75.14-1.45.42-2.1.28-.65.67-1.2,1.16-1.67.47-.47,1.02-.83,1.66-1.08.63-.25,1.31-.37,2.04-.37s1.4.13,2.03.39c.62.26,1.16.62,1.6,1.09s.8,1.03,1.06,1.67c.26.65.39,1.33.39,2.06h-3.38Z"/>
        <path class="cls-1" d="M299.56,118.69v-5.43h3.59v5.43h2.22v2.82h-2.22v9.9c0,.42.04.75.12.99.08.24.22.41.41.53.19.12.42.19.69.21.27.02.6.04,1,.04v3.38h-1.48c-.82,0-1.51-.13-2.06-.39-.55-.26-.99-.59-1.32-.99-.33-.4-.57-.85-.72-1.36-.15-.5-.23-.99-.23-1.46v-10.85h-1.8v-2.82h1.8Z"/>
        <path class="cls-1" d="M313.55,136.56v-1.83h-.07c-.47.66-.95,1.16-1.43,1.52-.48.35-1.16.53-2.03.53-.42,0-.85-.07-1.29-.19s-.85-.37-1.25-.72c-.4-.33-.72-.8-.97-1.43-.25-.62-.37-1.43-.37-2.41s.08-1.9.25-2.66c.16-.76.47-1.4.92-1.92.42-.49,1-.86,1.73-1.11.73-.25,1.66-.37,2.78-.37h.39c.14,0,.27.01.39.04.12.02.26.04.42.04s.34.01.53.04v-1.87c0-.61-.13-1.12-.39-1.51s-.73-.6-1.41-.6c-.47,0-.9.15-1.29.46-.39.31-.64.75-.76,1.34h-3.49c.09-1.6.63-2.89,1.62-3.88.47-.47,1.03-.84,1.69-1.11.66-.27,1.4-.41,2.22-.41.75,0,1.46.12,2.11.35.66.24,1.23.59,1.73,1.06.47.47.84,1.06,1.13,1.76.28.71.42,1.53.42,2.47v12.44h-3.59ZM313.55,128.87c-.4-.07-.73-.11-.99-.11-.78,0-1.44.18-1.99.55-.55.36-.83,1.03-.83,1.99,0,.68.16,1.23.49,1.66.33.42.79.63,1.37.63s1.09-.2,1.43-.6c.34-.4.51-.96.51-1.69v-2.43Z"/>
        <path class="cls-1" d="M317.85,118.69h3.8l2.47,11.13h.07l2.43-11.13h3.7l-5.14,20.96c-.19.8-.45,1.46-.79,1.97-.34.52-.73.94-1.18,1.27s-.92.56-1.43.69c-.5.13-1.03.19-1.57.19h-.99v-3.38h.81c.35,0,.66-.05.92-.14.26-.09.49-.3.7-.63.19-.33.36-.79.53-1.39s.35-1.43.56-2.48l-4.9-17.05Z"/>
        <path class="cls-1" d="M336.8,118.69h3.8l2.47,11.13h.07l2.43-11.13h3.7l-5.14,20.96c-.19.8-.45,1.46-.79,1.97-.34.52-.73.94-1.18,1.27s-.92.56-1.43.69c-.5.13-1.03.19-1.57.19h-.99v-3.38h.81c.35,0,.66-.05.92-.14.26-.09.49-.3.7-.63.19-.33.36-.79.53-1.39s.35-1.43.56-2.48l-4.9-17.05Z"/>
        <path class="cls-1" d="M350.19,124.68c0-.73.05-1.4.14-2.01.09-.61.27-1.15.53-1.62.42-.78,1.03-1.4,1.81-1.87s1.74-.71,2.87-.71,2.08.24,2.87.71,1.39,1.09,1.81,1.87c.26.47.43,1.01.53,1.62.09.61.14,1.28.14,2.01v5.88c0,.73-.05,1.4-.14,2.01-.09.61-.27,1.15-.53,1.62-.42.78-1.03,1.4-1.81,1.87-.79.47-1.74.71-2.87.71s-2.08-.23-2.87-.71c-.79-.47-1.39-1.09-1.81-1.87-.26-.47-.43-1.01-.53-1.62-.09-.61-.14-1.28-.14-2.01v-5.88ZM353.78,131.13c0,.68.16,1.19.48,1.53.32.34.75.51,1.29.51s.97-.17,1.29-.51c.32-.34.48-.85.48-1.53v-7.01c0-.68-.16-1.19-.48-1.53-.32-.34-.75-.51-1.29-.51s-.97.17-1.29.51c-.32.34-.48.85-.48,1.53v7.01Z"/>
        <path class="cls-1" d="M374.29,118.69v17.86h-3.59v-1.73h-.07c-.38.56-.83,1.03-1.36,1.39-.53.36-1.2.55-2.03.55-.45,0-.89-.08-1.34-.23-.45-.15-.85-.41-1.2-.76-.35-.35-.63-.8-.85-1.36-.21-.55-.32-1.23-.32-2.03v-13.71h3.59v12.37c0,.66.15,1.17.46,1.55.31.38.74.56,1.3.56.68,0,1.15-.21,1.41-.63s.39-1.03.39-1.83v-12.01h3.59Z"/>
        <path class="cls-1" d="M377.25,136.56v-17.86h3.59v1.9c.73-.66,1.45-1.17,2.15-1.55.71-.38,1.57-.56,2.61-.56v3.81c-.35-.14-.72-.21-1.09-.21s-.78.07-1.22.19-.83.35-1.18.65c-.38.31-.68.71-.92,1.2s-.35,1.1-.35,1.83v10.6h-3.59Z"/>
        <path class="cls-1" d="M410.96,118.69l-4.23,17.86h-3.17l-1.97-10.6h-.07l-1.97,10.6h-3.17l-4.23-17.86h3.8l2.18,11.1h.07l2.01-11.1h2.82l1.9,11.1h.07l2.15-11.1h3.81Z"/>
        <path class="cls-1" d="M419.07,136.56v-1.83h-.07c-.47.66-.95,1.16-1.43,1.52-.48.35-1.16.53-2.03.53-.42,0-.85-.07-1.29-.19-.44-.13-.85-.37-1.25-.72-.4-.33-.72-.8-.97-1.43-.25-.62-.37-1.43-.37-2.41s.08-1.9.25-2.66c.16-.76.47-1.4.92-1.92.42-.49,1-.86,1.73-1.11.73-.25,1.66-.37,2.78-.37h.39c.14,0,.27.01.39.04s.26.04.42.04.34.01.53.04v-1.87c0-.61-.13-1.12-.39-1.51s-.73-.6-1.41-.6c-.47,0-.9.15-1.29.46-.39.31-.64.75-.76,1.34h-3.49c.09-1.6.63-2.89,1.62-3.88.47-.47,1.03-.84,1.69-1.11.66-.27,1.4-.41,2.22-.41.75,0,1.46.12,2.11.35.66.24,1.23.59,1.73,1.06.47.47.85,1.06,1.13,1.76.28.71.42,1.53.42,2.47v12.44h-3.59ZM419.07,128.87c-.4-.07-.73-.11-.99-.11-.78,0-1.44.18-1.99.55-.55.36-.83,1.03-.83,1.99,0,.68.16,1.23.49,1.66.33.42.79.63,1.37.63s1.09-.2,1.43-.6c.34-.4.51-.96.51-1.69v-2.43Z"/>
        <path class="cls-1" d="M423.36,118.69h3.8l2.47,11.13h.07l2.43-11.13h3.7l-5.14,20.96c-.19.8-.45,1.46-.79,1.97s-.73.94-1.18,1.27c-.45.33-.92.56-1.43.69-.51.13-1.03.19-1.57.19h-.99v-3.38h.81c.35,0,.66-.05.92-.14.26-.09.49-.3.7-.63.19-.33.36-.79.53-1.39s.35-1.43.56-2.48l-4.9-17.05Z"/>
      </g>
    </g>
  </g>
</svg>